# xmcd
# 
# Track frame offsets:
#     150
#     15777
#     29535
#     47927
#     63370
#     78165
#     96772
#     119207
#     133100
#     149510
#     162492
#     174815
# 
# Disc length: 2559
# 
# Revision: 6
# Processed by: cddbd v1.5.2PL0 Copyright (c) Steve Scherf et al.
# Submitted via: fre:ac v1.0.17
# 
DISCID=a009fd0c
DTITLE=Various Artist - New Country - October 1995
DYEAR=1995
DGENRE=Country
TTITLE0=Maura O'Connell - Hit The Ground Runnin'
TTITLE1=Chris Gaffney - Loser's Paradise
TTITLE2=High Strung - Since You've Been Gone
TTITLE3=Don Williams - Games People Play
TTITLE4=Ron Wallace - I'm Listening Now
TTITLE5=Marcus Hummon - Bless The Broken Road
TTITLE6=Pete Anderson - Working Class
TTITLE7=Jim Matt - Better Place To Live
TTITLE8=Ellis Paul - All Things Being The Same
TTITLE9=Eddy Lawrence - Wanted
TTITLE10=Andy Brown - High Plains Drifter
TTITLE11=Kevin Welch - Life Down Here On Earth
EXTD=
EXTT0=
EXTT1=
EXTT2=
EXTT3=
EXTT4=
EXTT5=
EXTT6=
EXTT7=
EXTT8=
EXTT9=
EXTT10=
EXTT11=
PLAYORDER=
